<svg width="264" height="75" viewBox="0 0 264 75" fill="none" xmlns="http://www.w3.org/2000/svg">
<path d="M47.32 47.28H51.87V65.56H47.32V47.28Z" fill="white"/>
<path d="M0.19 53.1C0.19 45.63 4.79 40.07 11.93 40.07C18.25 40.07 22.09 43.76 22.85 49.17H18.2C17.58 46.01 15.28 44.04 11.92 44.04C7.32 44.04 4.88 47.83 4.88 53.1C4.88 58.37 7.32 62.16 11.92 62.16C15.32 62.16 17.62 60.1 18.2 56.84H22.85C22.13 62.35 17.87 66.14 11.93 66.14C4.79 66.14 0.19 60.58 0.19 53.11V53.1Z" fill="white"/>
<path d="M87.47 44.09C85.65 44.09 81.34 45.05 81.34 51.66V65.55H76.79V49.79C76.79 46.48 75.11 44.09 71.9 44.09C70.08 44.09 65.72 45.05 65.72 51.66V65.55H61.22V40.64H65.53V44.19C66.97 41.84 69.32 40.07 72.96 40.07C76.6 40.07 79.19 42.08 80.43 44.81C81.96 42.17 84.55 40.07 88.53 40.07C94.18 40.07 96.91 44.57 96.91 49.36V65.55H92.36V49.79C92.36 46.48 90.68 44.09 87.47 44.09Z" fill="white"/>
<path d="M104.56 40.64H109.11V65.55H104.56V40.64Z" fill="white"/>
<path d="M128.29 44.09C126.42 44.09 121.53 45.05 121.53 51.66V65.55H117.03V40.64H121.34V44.23C123.02 41.88 125.65 40.06 129.34 40.06C135.52 40.06 138.2 44.56 138.2 49.35V65.54H133.7V49.78C133.7 46.47 132.02 44.08 128.29 44.08V44.09Z" fill="white"/>
<path d="M160.53 62.49C158.37 65.22 155.55 66.13 152.58 66.13C147.02 66.13 143.57 63.49 143.57 58.75C143.57 54.34 146.88 52.09 152.67 50.99L160.34 49.55V47.78C160.34 45 158.47 43.9 155.12 43.9C152.2 43.9 149.18 44.86 148.99 48.36H144.49C144.68 42.37 149.66 40.07 155.08 40.07C161.69 40.07 164.76 42.85 164.76 47.3V65.55H160.54V62.48L160.53 62.49ZM153.06 62.35C156.61 62.35 160.34 60.39 160.34 55.74V53.15L153.39 54.54C150.23 55.21 148.22 55.93 148.22 58.61C148.22 60.86 149.66 62.35 153.06 62.35Z" fill="white"/>
<path d="M175.32 59.18C175.32 60.95 176.09 61.72 177.86 61.72H181.21V65.55H176.95C172.64 65.55 170.82 63.83 170.82 59.7V31.05H175.32V59.18Z" fill="white"/>
<path d="M186.29 31.06H190.79V36.14H186.29V31.06ZM186.29 40.64H190.84V65.55H186.29V40.64Z" fill="white"/>
<path d="M204.54 40.64H211.15V44.47H204.54V59.18C204.54 60.95 205.26 61.72 207.08 61.72H211.15V65.55H206.12C201.81 65.55 199.99 63.83 199.99 59.7V44.46H195.44V40.63H199.99V32.96H204.54V40.64Z" fill="white"/>
<path d="M215.16 53.1C215.16 45.63 219.76 40.07 226.99 40.07C234.22 40.07 238.78 45.58 238.78 53.2V54.64H219.9C220.33 59.14 222.77 62.21 226.99 62.21C230.15 62.21 232.55 60.63 233.7 57.99H238.3C236.72 62.93 232.55 66.14 226.99 66.14C219.76 66.14 215.16 60.58 215.16 53.11V53.1ZM234.04 50.85C233.37 46.73 230.97 44 227 44C223.03 44 220.58 46.73 219.96 50.85H234.05H234.04ZM229.63 30.49H235.43L228.91 37.49H225.03L229.63 30.49Z" fill="white"/>
<path d="M242.66 57.41H247.16C247.54 61.1 249.7 62.44 253.53 62.44C257.03 62.44 259.14 61.15 259.14 58.89C259.14 56.78 258.42 55.87 252.96 54.96C245.34 53.71 243.38 51.22 243.38 47.25C243.38 42.84 247.26 40.06 252.82 40.06C259.29 40.06 263.12 43.13 263.22 48.35H258.76C258.62 44.71 256.03 43.75 252.82 43.75C250.04 43.75 247.88 44.95 247.88 47.15C247.88 49.35 249.08 50.12 254.25 50.98C261.63 52.27 263.69 54.48 263.69 58.6C263.69 63.44 259.38 66.12 253.48 66.12C247.58 66.12 242.99 63.48 242.65 57.4L242.66 57.41Z" fill="white"/>
<path d="M51.82 69.76H47.32V74.84H51.82V69.76Z" fill="white"/>
<path d="M0 17.82C0 8.19 5.61 0 16.63 0C24.63 0 29.85 5.17 31.05 12.12H26.21C25.3 7.57 21.71 4.41 16.63 4.41C8.63 4.41 4.99 10.49 4.99 17.83C4.99 25.17 8.63 31.25 16.63 31.25C22.14 31.25 25.78 27.51 26.45 22.43H31.29C30.38 29.9 25.06 35.65 16.63 35.65C5.61 35.65 0 27.45 0 17.82Z" fill="white"/>
<path d="M53.08 10.16L46.18 29.9L39.28 10.16H34.34L43.83 35.12L42.82 37.8C42.05 39.96 41.48 40.78 39.18 40.78H39.17C36.52 40.95 34.15 41.81 32.47 44.95V40.64H28.16V65.55H32.66V52.57C32.66 46.44 35.97 44.65 40.19 44.65H40.71C44.64 44.65 45.93 42.16 47.13 38.85L57.96 10.15H53.07L53.08 10.16Z" fill="white"/>
<path d="M61.22 0.58H65.72V13.66C67.49 11.12 70.18 9.59 73.87 9.59C81.3 9.59 85.37 15.15 85.37 22.62C85.37 30.09 81.3 35.65 73.87 35.65C70.09 35.65 67.26 34.02 65.53 31.29V35.08H61.22V0.58ZM73.15 31.68C78.23 31.68 80.67 27.89 80.67 22.62C80.67 17.35 78.23 13.56 73.15 13.56C68.07 13.56 65.68 17.35 65.68 22.62C65.68 27.89 68.12 31.68 73.15 31.68Z" fill="white"/>
<path d="M88.82 22.62C88.82 15.15 93.42 9.59 100.65 9.59C107.88 9.59 112.44 15.1 112.44 22.72V24.16H93.56C93.99 28.66 96.43 31.73 100.65 31.73C103.81 31.73 106.21 30.15 107.36 27.51H111.96C110.38 32.45 106.21 35.66 100.65 35.66C93.42 35.66 88.82 30.1 88.82 22.63V22.62ZM107.7 20.37C107.03 16.25 104.63 13.52 100.66 13.52C96.69 13.52 94.24 16.25 93.62 20.37H107.71H107.7Z" fill="white"/>
<path d="M117.08 10.16H121.39V14.47C123.31 10.88 126.13 9.87 129.25 9.87H131.17V14.18H129.11C124.89 14.18 121.59 15.95 121.59 22.09V35.07H117.09V10.16H117.08Z" fill="white"/>
<path d="M109.06 69.76H104.56V74.84H109.06V69.76Z" fill="white"/>
</svg>
